<svg xmlns="http://www.w3.org/2000/svg" width="1280" height="720" viewBox="0 0 1280 720" role="img" aria-label="Edit / delete entries">
  <defs>
    <linearGradient id="bg" x1="0" x2="1" y1="0" y2="1">
      <stop offset="0%" stop-color="#f8fafc"/>
      <stop offset="100%" stop-color="#e2e8f0"/>
    </linearGradient>
  </defs>
  <rect width="1280" height="720" fill="url(#bg)"/>
  <rect x="40" y="32" width="1200" height="68" rx="16" fill="#ffffff" stroke="#cbd5e1"/>
  <rect x="40" y="124" width="350" height="544" rx="18" fill="#ffffff" stroke="#cbd5e1"/>
  <rect x="414" y="124" width="826" height="130" rx="18" fill="#ffffff" stroke="#cbd5e1"/>
  <rect x="414" y="274" width="826" height="118" rx="18" fill="#ffffff" stroke="#cbd5e1"/>
  <rect x="414" y="410" width="826" height="118" rx="18" fill="#ffffff" stroke="#cbd5e1"/>
  <rect x="414" y="546" width="826" height="122" rx="18" fill="#ffffff" stroke="#cbd5e1"/>
  <rect x="56" y="46" width="160" height="40" rx="10" fill="#dbeafe"/>
  <rect x="1120" y="46" width="104" height="40" rx="10" fill="#e2e8f0"/>
  <rect x="60" y="164" width="310" height="56" rx="12" fill="#eef2ff"/>
  <rect x="60" y="240" width="310" height="12" rx="6" fill="#e2e8f0"/>
  <rect x="60" y="268" width="310" height="12" rx="6" fill="#e2e8f0"/>
  <rect x="60" y="298" width="310" height="190" rx="12" fill="#f8fafc" stroke="#e2e8f0"/>
  <rect x="72" y="510" width="286" height="44" rx="10" fill="#2563eb"/>
  <rect x="442" y="150" width="770" height="18" rx="9" fill="#e2e8f0"/>
  <rect x="442" y="178" width="620" height="12" rx="6" fill="#e2e8f0"/>
  <rect x="442" y="206" width="520" height="12" rx="6" fill="#e2e8f0"/>
  <g>
    <rect x="438" y="120" width="834" height="556" rx="20" fill="none" stroke="#2563eb" stroke-width="4" stroke-dasharray="10 10"/>
  </g>
  <rect x="430" y="620" width="830" height="42" rx="12" fill="#1d4ed8"/>
  <text x="640" y="644" text-anchor="middle" font-family="Arial, sans-serif" font-size="24" fill="#ffffff" font-weight="700">Edit / delete entries</text>
  <text x="640" y="694" text-anchor="middle" font-family="Arial, sans-serif" font-size="25" fill="#0f172a" font-weight="600">Expand an entry to edit details or delete it.</text>
</svg>